<mxfile host="app.diagrams.net" modified="2022-07-19T09:59:51.883Z" agent="5.0 (Macintosh; Intel Mac OS X 10_15_7) AppleWebKit/537.36 (KHTML, like Gecko) Chrome/103.0.0.0 Safari/537.36" etag="pJDr4JeyDblJNM4YreR0" version="15.0.3" type="github">
  <diagram id="gr-pRlJ5_RWILkJ-iI3I" name="Page-1">
    <mxGraphModel dx="868" dy="568" grid="1" gridSize="10" guides="1" tooltips="1" connect="1" arrows="1" fold="1" page="1" pageScale="1" pageWidth="827" pageHeight="1169" math="0" shadow="0">
      <root>
        <mxCell id="0" />
        <mxCell id="1" parent="0" />
        <mxCell id="GXLX8bokTF_CUOR4_T2N-4" value="VPN" style="edgeStyle=orthogonalEdgeStyle;rounded=0;orthogonalLoop=1;jettySize=auto;html=1;exitX=1;exitY=0.5;exitDx=0;exitDy=0;startArrow=classic;startFill=1;" edge="1" parent="1" source="GXLX8bokTF_CUOR4_T2N-2" target="GXLX8bokTF_CUOR4_T2N-3">
          <mxGeometry relative="1" as="geometry" />
        </mxCell>
        <mxCell id="GXLX8bokTF_CUOR4_T2N-2" value="IDC" style="rounded=0;whiteSpace=wrap;html=1;align=center;verticalAlign=top;" vertex="1" parent="1">
          <mxGeometry x="30" y="110" width="350" height="610" as="geometry" />
        </mxCell>
        <mxCell id="GXLX8bokTF_CUOR4_T2N-3" value="阿里云" style="rounded=0;whiteSpace=wrap;html=1;align=center;verticalAlign=top;" vertex="1" parent="1">
          <mxGeometry x="450" y="110" width="350" height="610" as="geometry" />
        </mxCell>
        <mxCell id="GXLX8bokTF_CUOR4_T2N-7" style="edgeStyle=orthogonalEdgeStyle;rounded=0;orthogonalLoop=1;jettySize=auto;html=1;startArrow=none;startFill=0;entryX=0.5;entryY=-0.086;entryDx=0;entryDy=0;entryPerimeter=0;" edge="1" parent="1" source="GXLX8bokTF_CUOR4_T2N-5" target="GXLX8bokTF_CUOR4_T2N-23">
          <mxGeometry relative="1" as="geometry">
            <mxPoint x="503" y="120" as="targetPoint" />
          </mxGeometry>
        </mxCell>
        <mxCell id="GXLX8bokTF_CUOR4_T2N-5" value="" style="aspect=fixed;perimeter=ellipsePerimeter;html=1;align=center;shadow=0;dashed=0;spacingTop=3;image;image=img/lib/active_directory/internet_cloud.svg;" vertex="1" parent="1">
          <mxGeometry x="360" y="10" width="79.37" height="50" as="geometry" />
        </mxCell>
        <mxCell id="GXLX8bokTF_CUOR4_T2N-10" style="edgeStyle=orthogonalEdgeStyle;rounded=0;orthogonalLoop=1;jettySize=auto;html=1;startArrow=none;startFill=0;exitX=0;exitY=0.492;exitDx=0;exitDy=0;exitPerimeter=0;" edge="1" parent="1" source="GXLX8bokTF_CUOR4_T2N-23" target="GXLX8bokTF_CUOR4_T2N-26">
          <mxGeometry relative="1" as="geometry">
            <mxPoint x="481.54999999999995" y="159.25" as="sourcePoint" />
            <Array as="points">
              <mxPoint x="335" y="155" />
              <mxPoint x="185" y="155" />
            </Array>
          </mxGeometry>
        </mxCell>
        <mxCell id="GXLX8bokTF_CUOR4_T2N-11" style="edgeStyle=orthogonalEdgeStyle;rounded=0;orthogonalLoop=1;jettySize=auto;html=1;startArrow=none;startFill=0;exitX=1;exitY=0.508;exitDx=0;exitDy=0;exitPerimeter=0;" edge="1" parent="1" source="GXLX8bokTF_CUOR4_T2N-23" target="GXLX8bokTF_CUOR4_T2N-24">
          <mxGeometry relative="1" as="geometry">
            <mxPoint x="524.45" y="159.25" as="sourcePoint" />
            <mxPoint x="640" y="190" as="targetPoint" />
          </mxGeometry>
        </mxCell>
        <mxCell id="GXLX8bokTF_CUOR4_T2N-16" style="rounded=0;orthogonalLoop=1;jettySize=auto;html=1;entryX=0.5;entryY=0;entryDx=0;entryDy=0;entryPerimeter=0;startArrow=none;startFill=0;exitX=0.5;exitY=1;exitDx=0;exitDy=0;" edge="1" parent="1" source="GXLX8bokTF_CUOR4_T2N-8" target="GXLX8bokTF_CUOR4_T2N-12">
          <mxGeometry relative="1" as="geometry" />
        </mxCell>
        <mxCell id="GXLX8bokTF_CUOR4_T2N-17" value="读写" style="edgeLabel;html=1;align=center;verticalAlign=middle;resizable=0;points=[];" vertex="1" connectable="0" parent="GXLX8bokTF_CUOR4_T2N-16">
          <mxGeometry x="-0.1245" y="-1" relative="1" as="geometry">
            <mxPoint y="1" as="offset" />
          </mxGeometry>
        </mxCell>
        <mxCell id="GXLX8bokTF_CUOR4_T2N-18" style="rounded=0;orthogonalLoop=1;jettySize=auto;html=1;entryX=0.5;entryY=0;entryDx=0;entryDy=0;entryPerimeter=0;startArrow=none;startFill=0;exitX=0.5;exitY=1;exitDx=0;exitDy=0;" edge="1" parent="1" source="GXLX8bokTF_CUOR4_T2N-8" target="GXLX8bokTF_CUOR4_T2N-13">
          <mxGeometry relative="1" as="geometry" />
        </mxCell>
        <mxCell id="GXLX8bokTF_CUOR4_T2N-19" value="只读" style="edgeLabel;html=1;align=center;verticalAlign=middle;resizable=0;points=[];" vertex="1" connectable="0" parent="GXLX8bokTF_CUOR4_T2N-18">
          <mxGeometry x="0.0442" y="1" relative="1" as="geometry">
            <mxPoint y="1" as="offset" />
          </mxGeometry>
        </mxCell>
        <mxCell id="GXLX8bokTF_CUOR4_T2N-8" value="业务A" style="rounded=0;whiteSpace=wrap;html=1;align=center;verticalAlign=top;" vertex="1" parent="1">
          <mxGeometry x="170" y="300" width="180" height="90" as="geometry" />
        </mxCell>
        <mxCell id="GXLX8bokTF_CUOR4_T2N-29" style="edgeStyle=none;rounded=0;orthogonalLoop=1;jettySize=auto;html=1;entryX=0.278;entryY=0.143;entryDx=0;entryDy=0;entryPerimeter=0;startArrow=none;startFill=0;exitX=0.5;exitY=1;exitDx=0;exitDy=0;" edge="1" parent="1" source="GXLX8bokTF_CUOR4_T2N-9" target="GXLX8bokTF_CUOR4_T2N-20">
          <mxGeometry relative="1" as="geometry" />
        </mxCell>
        <mxCell id="GXLX8bokTF_CUOR4_T2N-31" value="只读" style="edgeLabel;html=1;align=center;verticalAlign=middle;resizable=0;points=[];" vertex="1" connectable="0" parent="GXLX8bokTF_CUOR4_T2N-29">
          <mxGeometry x="0.0053" y="-3" relative="1" as="geometry">
            <mxPoint as="offset" />
          </mxGeometry>
        </mxCell>
        <mxCell id="GXLX8bokTF_CUOR4_T2N-30" style="edgeStyle=none;rounded=0;orthogonalLoop=1;jettySize=auto;html=1;entryX=0.833;entryY=0.143;entryDx=0;entryDy=0;entryPerimeter=0;startArrow=none;startFill=0;exitX=0.5;exitY=1;exitDx=0;exitDy=0;" edge="1" parent="1" source="GXLX8bokTF_CUOR4_T2N-9" target="GXLX8bokTF_CUOR4_T2N-20">
          <mxGeometry relative="1" as="geometry" />
        </mxCell>
        <mxCell id="GXLX8bokTF_CUOR4_T2N-32" value="读写" style="edgeLabel;html=1;align=center;verticalAlign=middle;resizable=0;points=[];" vertex="1" connectable="0" parent="GXLX8bokTF_CUOR4_T2N-30">
          <mxGeometry x="0.1733" y="2" relative="1" as="geometry">
            <mxPoint as="offset" />
          </mxGeometry>
        </mxCell>
        <mxCell id="GXLX8bokTF_CUOR4_T2N-9" value="业务A" style="rounded=0;whiteSpace=wrap;html=1;align=center;verticalAlign=top;" vertex="1" parent="1">
          <mxGeometry x="470" y="300" width="180" height="90" as="geometry" />
        </mxCell>
        <mxCell id="GXLX8bokTF_CUOR4_T2N-22" value="" style="group" vertex="1" connectable="0" parent="1">
          <mxGeometry x="210" y="585" width="360" height="105" as="geometry" />
        </mxCell>
        <mxCell id="GXLX8bokTF_CUOR4_T2N-12" value="主" style="outlineConnect=0;dashed=0;verticalLabelPosition=bottom;verticalAlign=top;align=center;html=1;shape=mxgraph.aws3.mysql_db_instance;fillColor=#2E73B8;gradientColor=none;" vertex="1" parent="GXLX8bokTF_CUOR4_T2N-22">
          <mxGeometry x="260" y="15" width="60" height="64.5" as="geometry" />
        </mxCell>
        <mxCell id="GXLX8bokTF_CUOR4_T2N-13" value="从" style="outlineConnect=0;dashed=0;verticalLabelPosition=bottom;verticalAlign=top;align=center;html=1;shape=mxgraph.aws3.mysql_db_instance;fillColor=#2E73B8;gradientColor=none;" vertex="1" parent="GXLX8bokTF_CUOR4_T2N-22">
          <mxGeometry x="60" y="15" width="60" height="64.5" as="geometry" />
        </mxCell>
        <mxCell id="GXLX8bokTF_CUOR4_T2N-14" style="edgeStyle=orthogonalEdgeStyle;rounded=0;orthogonalLoop=1;jettySize=auto;html=1;entryX=1;entryY=0.5;entryDx=0;entryDy=0;entryPerimeter=0;startArrow=none;startFill=0;" edge="1" parent="GXLX8bokTF_CUOR4_T2N-22" source="GXLX8bokTF_CUOR4_T2N-12" target="GXLX8bokTF_CUOR4_T2N-13">
          <mxGeometry relative="1" as="geometry" />
        </mxCell>
        <mxCell id="GXLX8bokTF_CUOR4_T2N-15" value="主从同步" style="edgeLabel;html=1;align=center;verticalAlign=middle;resizable=0;points=[];" vertex="1" connectable="0" parent="GXLX8bokTF_CUOR4_T2N-14">
          <mxGeometry x="-0.147" y="-1" relative="1" as="geometry">
            <mxPoint as="offset" />
          </mxGeometry>
        </mxCell>
        <mxCell id="GXLX8bokTF_CUOR4_T2N-20" value="" style="rounded=0;whiteSpace=wrap;html=1;align=center;verticalAlign=top;fillColor=none;dashed=1;" vertex="1" parent="GXLX8bokTF_CUOR4_T2N-22">
          <mxGeometry width="360" height="105" as="geometry" />
        </mxCell>
        <mxCell id="GXLX8bokTF_CUOR4_T2N-21" style="edgeStyle=none;rounded=0;orthogonalLoop=1;jettySize=auto;html=1;exitX=1;exitY=1;exitDx=0;exitDy=0;startArrow=none;startFill=0;" edge="1" parent="GXLX8bokTF_CUOR4_T2N-22" source="GXLX8bokTF_CUOR4_T2N-20" target="GXLX8bokTF_CUOR4_T2N-20">
          <mxGeometry relative="1" as="geometry" />
        </mxCell>
        <mxCell id="GXLX8bokTF_CUOR4_T2N-23" value="" style="aspect=fixed;html=1;points=[];align=center;image;fontSize=12;image=img/lib/azure2/networking/DNS_Zones.svg;dashed=1;" vertex="1" parent="1">
          <mxGeometry x="470" y="130" width="50" height="50" as="geometry" />
        </mxCell>
        <mxCell id="GXLX8bokTF_CUOR4_T2N-28" value="" style="edgeStyle=none;rounded=0;orthogonalLoop=1;jettySize=auto;html=1;startArrow=none;startFill=0;" edge="1" parent="1" source="GXLX8bokTF_CUOR4_T2N-24" target="GXLX8bokTF_CUOR4_T2N-9">
          <mxGeometry relative="1" as="geometry" />
        </mxCell>
        <mxCell id="GXLX8bokTF_CUOR4_T2N-24" value="slb" style="shape=mxgraph.cisco.misc.ios_slb;html=1;pointerEvents=1;dashed=0;fillColor=#036897;strokeColor=#ffffff;strokeWidth=2;verticalLabelPosition=middle;verticalAlign=middle;align=left;outlineConnect=0;labelPosition=right;" vertex="1" parent="1">
          <mxGeometry x="535" y="200" width="50" height="20" as="geometry" />
        </mxCell>
        <mxCell id="GXLX8bokTF_CUOR4_T2N-27" style="edgeStyle=none;rounded=0;orthogonalLoop=1;jettySize=auto;html=1;entryX=0.5;entryY=0;entryDx=0;entryDy=0;startArrow=none;startFill=0;" edge="1" parent="1" source="GXLX8bokTF_CUOR4_T2N-26" target="GXLX8bokTF_CUOR4_T2N-8">
          <mxGeometry relative="1" as="geometry" />
        </mxCell>
        <mxCell id="GXLX8bokTF_CUOR4_T2N-26" value="nginx" style="pointerEvents=1;shadow=0;dashed=0;html=1;strokeColor=none;fillColor=#505050;labelPosition=left;verticalLabelPosition=middle;verticalAlign=middle;outlineConnect=0;align=right;shape=mxgraph.office.servers.reverse_proxy;" vertex="1" parent="1">
          <mxGeometry x="244.5" y="180" width="31" height="30" as="geometry" />
        </mxCell>
      </root>
    </mxGraphModel>
  </diagram>
</mxfile>
